<?xml version="1.0" encoding="UTF-8"?>
<svg xmlns="http://www.w3.org/2000/svg" width="1254" height="1254" viewBox="0 0 1254 1254" fill="none">
  <defs>
    <linearGradient id="bgGrad" x1="170" y1="1060" x2="1095" y2="140" gradientUnits="userSpaceOnUse">
      <stop offset="0" stop-color="#0C6FFF"/>
      <stop offset="0.55" stop-color="#3EAEFF"/>
      <stop offset="1" stop-color="#75DBFF"/>
    </linearGradient>
    <radialGradient id="bgGlow" cx="0" cy="0" r="1" gradientUnits="userSpaceOnUse" gradientTransform="translate(615 895) rotate(-90) scale(640 640)">
      <stop offset="0" stop-color="#2A86FF" stop-opacity="0.52"/>
      <stop offset="1" stop-color="#2A86FF" stop-opacity="0"/>
    </radialGradient>
    <linearGradient id="paperFront" x1="410" y1="330" x2="955" y2="1030" gradientUnits="userSpaceOnUse">
      <stop offset="0" stop-color="#F7F7F8"/>
      <stop offset="0.58" stop-color="#F2F4F7"/>
      <stop offset="1" stop-color="#E7EDF7"/>
    </linearGradient>
    <linearGradient id="paperRoll" x1="215" y1="360" x2="420" y2="910" gradientUnits="userSpaceOnUse">
      <stop offset="0" stop-color="#EEF2F8"/>
      <stop offset="0.52" stop-color="#E4EBF4"/>
      <stop offset="1" stop-color="#C8D7EE"/>
    </linearGradient>
    <linearGradient id="rollShadowFill" x1="320" y1="390" x2="340" y2="905" gradientUnits="userSpaceOnUse">
      <stop offset="0" stop-color="#D9E2EF"/>
      <stop offset="1" stop-color="#98B2D8"/>
    </linearGradient>
    <linearGradient id="blueSquare" x1="488" y1="590" x2="690" y2="362" gradientUnits="userSpaceOnUse">
      <stop offset="0" stop-color="#1E7EFF"/>
      <stop offset="1" stop-color="#42B0FF"/>
    </linearGradient>
    <linearGradient id="greenBar" x1="481" y1="704" x2="957" y2="647" gradientUnits="userSpaceOnUse">
      <stop offset="0" stop-color="#19C7EE"/>
      <stop offset="0.52" stop-color="#21E2B6"/>
      <stop offset="1" stop-color="#18E79D"/>
    </linearGradient>
    <linearGradient id="blueBar" x1="507" y1="866" x2="980" y2="792" gradientUnits="userSpaceOnUse">
      <stop offset="0" stop-color="#1C79FF"/>
      <stop offset="0.62" stop-color="#2193FF"/>
      <stop offset="1" stop-color="#25A7FF"/>
    </linearGradient>
    <linearGradient id="lineGrad" x1="760" y1="455" x2="936" y2="506" gradientUnits="userSpaceOnUse">
      <stop offset="0" stop-color="#C8D9EF"/>
      <stop offset="1" stop-color="#A7C1E6"/>
    </linearGradient>
    <filter id="shadowBg" x="120" y="170" width="1020" height="970" filterUnits="userSpaceOnUse" color-interpolation-filters="sRGB">
      <feGaussianBlur stdDeviation="30"/>
    </filter>
    <filter id="paperShadow" x="175" y="215" width="960" height="900" filterUnits="userSpaceOnUse" color-interpolation-filters="sRGB">
      <feOffset dy="28"/>
      <feGaussianBlur stdDeviation="28"/>
      <feColorMatrix type="matrix" values="0 0 0 0 0.02 0 0 0 0 0.20 0 0 0 0 0.47 0 0 0 0.24 0"/>
    </filter>
    <filter id="softShadow" x="140" y="300" width="360" height="760" filterUnits="userSpaceOnUse" color-interpolation-filters="sRGB">
      <feOffset dy="16"/>
      <feGaussianBlur stdDeviation="18"/>
      <feColorMatrix type="matrix" values="0 0 0 0 0.03 0 0 0 0 0.18 0 0 0 0 0.44 0 0 0 0.17 0"/>
    </filter>
  </defs>
<!--blue rounded-square icon only; outer white canvas removed-->
  <path d="M308 44H946C1076 44 1138 44 1185 88C1231 131 1231 191 1231 318V936C1231 1061 1231 1123 1185 1166C1138 1210 1076 1210 946 1210H308C178 1210 116 1210 69 1166C23 1123 23 1061 23 936V318C23 191 23 131 69 88C116 44 178 44 308 44Z" fill="url(#bgGrad)"/>
  <path d="M308 44H946C1076 44 1138 44 1185 88C1231 131 1231 191 1231 318V936C1231 1061 1231 1123 1185 1166C1138 1210 1076 1210 946 1210H308C178 1210 116 1210 69 1166C23 1123 23 1061 23 936V318C23 191 23 131 69 88C116 44 178 44 308 44Z" fill="url(#bgGlow)"/>
<!--overall contact shadow-->
  <g filter="url(#shadowBg)" opacity="0.2">
    <path d="M292 412C292 372 322 339 362 337L909 309C945 307 976 333 983 369L1037 830C1044 876 1012 919 967 924L398 987C364 991 332 970 324 936L292 412Z" fill="#0E5FDA"/>
  </g>
<!--rolled back sheet-->
  <g filter="url(#softShadow)">
    <path d="M220 410C220 372 250 342 288 342H319C357 342 387 372 387 410V934C387 973 357 1003 319 1003H288C250 1003 220 973 220 934V410Z" fill="#D7E3F4" opacity="0.55"/>
  </g>
  <path d="M201 410C201 372 231 342 269 342H310C348 342 378 372 378 410V934C378 973 348 1003 310 1003H269C231 1003 201 973 201 934V410Z" fill="url(#paperRoll)"/>
  <path d="M282 369C310 369 333 392 333 420V898C333 942 316 958 298 968C279 978 258 976 240 963C217 948 210 926 210 896V420C210 392 233 369 261 369H282Z" fill="url(#rollShadowFill)" opacity="0.85"/>
<!--front newspaper shadow-->
  <g filter="url(#paperShadow)">
    <path d="M335 334C341 297 373 270 410 269L910 243C946 241 978 267 985 303L1041 826C1048 872 1016 915 970 920L402 974C366 978 333 952 328 916L335 334Z" fill="#1146A8"/>
  </g>
<!--front newspaper-->
  <path d="M332 335C336 299 366 272 402 271L906 243C942 241 973 267 980 302L1036 824C1043 869 1012 911 967 917L396 972C360 976 328 949 323 913L332 335Z" fill="url(#paperFront)"/>
<!--blue thumbnail box-->
  <path d="M489 383C493 376 501 372 509 372H667C680 372 691 382 693 395L721 551C723 565 714 578 701 580L543 595C530 597 518 588 516 575L489 383Z" fill="url(#blueSquare)"/>
<!--text lines-->
  <path d="M748 390H892C901 390 908 397 908 406C908 415 901 422 892 422H748C739 422 732 415 732 406C732 397 739 390 748 390Z" fill="url(#lineGrad)"/>
  <path d="M760 455H907C916 455 923 462 923 471C923 480 916 487 907 487H760C751 487 744 480 744 471C744 462 751 455 760 455Z" fill="url(#lineGrad)"/>
  <path d="M772 523H922C931 523 938 530 938 539C938 548 931 555 922 555H772C763 555 756 548 756 539C756 530 763 523 772 523Z" fill="url(#lineGrad)"/>
<!--colored curved bars-->
  <path d="M495 720C577 688 744 664 921 653" stroke="url(#greenBar)" stroke-width="68" stroke-linecap="round"/>
  <path d="M514 858C625 808 781 792 943 783" stroke="url(#blueBar)" stroke-width="72" stroke-linecap="round"/>
</svg>
